<svg width="100" height="100" viewBox="0 0 100 100" fill="none" xmlns="http://www.w3.org/2000/svg">
<g clip-path="url(#clip0_101_2)">
<rect width="100" height="100" rx="10" fill="url(#paint0_linear_101_2)"/>
<ellipse cx="7.5" cy="105" rx="12.5" ry="8" fill="#E6C100"/>
<ellipse rx="10.0136" ry="16.5984" transform="matrix(0.783483 -0.621413 0.58077 0.814068 21.399 95.4388)" fill="#FFD80C"/>
<ellipse rx="16.5665" ry="11.3185" transform="matrix(0.932017 0.362416 -0.330153 0.943928 27.5703 113.119)" fill="#F2CC06"/>
<ellipse rx="12.6374" ry="19.1616" transform="matrix(0.88137 -0.472426 0.434293 0.900772 68.6299 95.6809)" fill="#F2CC06"/>
<ellipse rx="8.17477" ry="17.54" transform="matrix(0.898576 0.438817 -0.402171 0.915565 65.6267 105.111)" fill="#E6C100"/>
<ellipse rx="19.3708" ry="11.9879" transform="matrix(0.925466 -0.378831 0.345519 0.938412 60.0144 109.75)" fill="#D0AF00"/>
<ellipse rx="13.9414" ry="10.21" transform="matrix(0.98208 0.188467 -0.170101 0.985427 33.7416 102.659)" fill="#F2CC06"/>
<ellipse cx="80.5" cy="100" rx="15.5" ry="11" fill="#FFD80C"/>
<ellipse cx="39" cy="109.5" rx="8" ry="12.5" fill="#E6C100"/>
<ellipse rx="12.7048" ry="8.36732" transform="matrix(0.88137 -0.472426 0.434293 0.900772 49.6017 99.0036)" fill="#FFD80C"/>
<ellipse rx="12.6374" ry="19.1616" transform="matrix(0.88137 -0.472426 0.434293 0.900772 98.4579 107.61)" fill="#D0AF00"/>
<ellipse rx="15.3802" ry="9.3911" transform="matrix(0.88137 -0.472426 0.434293 0.900772 87.3751 93.5982)" fill="#F2CC06"/>
<ellipse cx="23" cy="98.5" rx="12" ry="7.5" fill="#D0AF00"/>
<ellipse rx="15.7225" ry="9.34804" transform="matrix(0.88137 -0.472426 0.434293 0.900772 -6.96863 94.8057)" fill="#F2CC06"/>
<ellipse cx="-7" cy="84" rx="14" ry="7" fill="#E6C100"/>
<ellipse rx="9.97243" ry="14.9325" transform="matrix(0.878361 -0.477998 0.72076 0.693185 24.7333 72.7086)" fill="#FFD80C"/>
<ellipse rx="17.8418" ry="9.1864" transform="matrix(0.966203 0.257783 -0.454163 0.890918 6.41096 90.7837)" fill="#F2CC06"/>
<ellipse rx="13.25" ry="16.1601" transform="matrix(0.938541 -0.345168 0.57494 0.818195 77.4659 72.8941)" fill="#F2CC06"/>
<ellipse rx="8.64944" ry="14.607" transform="matrix(0.948189 0.317706 -0.539176 0.842193 74.1129 80.1177)" fill="#E6C100"/>
<ellipse rx="20.7897" ry="9.78013" transform="matrix(0.962749 -0.270396 0.472849 0.881144 51.7698 88.6564)" fill="#D0AF00"/>
<ellipse rx="15.4183" ry="7.94754" transform="matrix(0.991442 0.130544 -0.243979 0.96978 38.5137 78.2394)" fill="#F2CC06"/>
<ellipse cx="75" cy="91.5" rx="17" ry="8.5" fill="#FFD80C"/>
<ellipse cx="28.5" cy="88" rx="8.5" ry="11" fill="#E6C100"/>
<ellipse rx="13.3207" ry="7.05666" transform="matrix(0.938541 -0.345168 0.57494 0.818195 56.2212 75.4394)" fill="#FFD80C"/>
<ellipse rx="13.25" ry="16.1601" transform="matrix(0.938541 -0.345168 0.57494 0.818195 94.6913 87.0173)" fill="#D0AF00"/>
<ellipse rx="16.1258" ry="7.92007" transform="matrix(0.938541 -0.345168 0.57494 0.818195 98.3945 71.2986)" fill="#FFD80C"/>
<ellipse cx="10.5" cy="78" rx="13.5" ry="6" fill="#D0AF00"/>
<ellipse rx="11.2388" ry="7.44587" transform="matrix(0.938541 -0.345168 0.57494 0.818195 -3.38202 74.8304)" fill="#F2CC06"/>
<ellipse rx="9.9484" ry="15.1859" transform="matrix(0.90788 -0.419231 0.616231 0.787565 17.0096 71.4162)" fill="#FFD80C"/>
<ellipse rx="13.0942" ry="16.6838" transform="matrix(0.961277 -0.275582 0.456633 0.889655 65.337 67.6542)" fill="#F2CC06"/>
<ellipse rx="15.4579" ry="5.39097" transform="matrix(0.995016 0.0997182 -0.101301 0.994856 -13.0731 59.63)" fill="#E6C100"/>
<ellipse rx="10.3193" ry="14.4312" transform="matrix(0.959822 -0.280609 0.750969 0.660338 22.4996 53.4252)" fill="#FFD80C"/>
<ellipse rx="19.1763" ry="8.05969" transform="matrix(0.956568 0.291508 -0.645669 0.763617 10.9991 67.3866)" fill="#F2CC06"/>
<ellipse rx="14.0771" ry="14.7532" transform="matrix(0.986094 -0.16619 0.610247 0.792212 79.7525 59.3142)" fill="#F2CC06"/>
<ellipse rx="9.22157" ry="13.1856" transform="matrix(0.941355 0.337418 -0.725384 0.688345 75.5171 64.7822)" fill="#E6C100"/>
<ellipse rx="10.3981" ry="10.0497" transform="matrix(-0.969194 0.246298 -0.458675 -0.888604 33.0006 68.7587)" fill="#D0AF00"/>
<ellipse rx="16.7616" ry="6.60713" transform="matrix(0.980559 0.196222 -0.41463 0.90999 37.0104 59.3909)" fill="#F2CC06"/>
<ellipse rx="9.27472" ry="8.3315" transform="matrix(0.995016 0.0997182 -0.101301 0.994856 26.004 66.5015)" fill="#E6C100"/>
<ellipse rx="14.1522" ry="6.44232" transform="matrix(0.986094 -0.16619 0.610247 0.792212 56.4712 59.0573)" fill="#FFD80C"/>
<ellipse rx="14.0771" ry="14.7532" transform="matrix(0.986094 -0.16619 0.610247 0.792212 105.116 65.564)" fill="#D0AF00"/>
<ellipse rx="14.6101" ry="7.14563" transform="matrix(-0.947048 0.321093 -0.562042 -0.827109 5.30939 70.0379)" fill="#FFD80C"/>
<ellipse rx="14.8396" ry="4.90089" transform="matrix(0.995016 0.0997182 -0.101301 0.994856 8.26206 59.3554)" fill="#D0AF00"/>
<ellipse rx="14.9352" ry="7.11287" transform="matrix(-0.947048 0.321093 -0.562042 -0.827109 98.8692 64.8687)" fill="#F2CC06"/>
<ellipse rx="12.6841" ry="6.83479" transform="matrix(-0.969194 0.246298 -0.458675 -0.888604 50.1984 67.5495)" fill="#E6C100"/>
<g filter="url(#filter0_b_101_2)">
<path d="M41.1776 41.8182C40.973 40.0909 40.1435 38.75 38.6889 37.7955C37.2344 36.8409 35.4503 36.3636 33.3366 36.3636C31.7912 36.3636 30.4389 36.6136 29.2798 37.1136C28.1321 37.6136 27.2344 38.3011 26.5866 39.1761C25.9503 40.0511 25.6321 41.0455 25.6321 42.1591C25.6321 43.0909 25.8537 43.892 26.2969 44.5625C26.7514 45.2216 27.331 45.7727 28.0355 46.2159C28.7401 46.6477 29.4787 47.0057 30.2514 47.2898C31.0241 47.5625 31.7344 47.7841 32.3821 47.9545L35.9276 48.9091C36.8366 49.1477 37.848 49.4773 38.9616 49.8977C40.0866 50.3182 41.1605 50.892 42.1832 51.6193C43.2173 52.3352 44.0696 53.2557 44.7401 54.3807C45.4105 55.5057 45.7457 56.8864 45.7457 58.5227C45.7457 60.4091 45.2514 62.1136 44.2628 63.6364C43.2855 65.1591 41.8537 66.3693 39.9673 67.267C38.0923 68.1648 35.8139 68.6136 33.1321 68.6136C30.6321 68.6136 28.4673 68.2102 26.6378 67.4034C24.8196 66.5966 23.3878 65.4716 22.3423 64.0284C21.3082 62.5852 20.723 60.9091 20.5866 59H24.9503C25.0639 60.3182 25.5071 61.4091 26.2798 62.2727C27.0639 63.125 28.0526 63.7614 29.2457 64.1818C30.4503 64.5909 31.7457 64.7955 33.1321 64.7955C34.7457 64.7955 36.1946 64.5341 37.4787 64.0114C38.7628 63.4773 39.7798 62.7386 40.5298 61.7955C41.2798 60.8409 41.6548 59.7273 41.6548 58.4545C41.6548 57.2955 41.331 56.3523 40.6832 55.625C40.0355 54.8977 39.1832 54.3068 38.1264 53.8523C37.0696 53.3977 35.9276 53 34.7003 52.6591L30.4048 51.4318C27.6776 50.6477 25.5185 49.5284 23.9276 48.0739C22.3366 46.6193 21.5412 44.7159 21.5412 42.3636C21.5412 40.4091 22.0696 38.7045 23.1264 37.25C24.1946 35.7841 25.6264 34.6477 27.4219 33.8409C29.2287 33.0227 31.2457 32.6136 33.473 32.6136C35.723 32.6136 37.723 33.017 39.473 33.8239C41.223 34.6193 42.6094 35.7102 43.6321 37.0966C44.6662 38.483 45.2116 40.0568 45.2685 41.8182H41.1776ZM76.5597 44C76.1847 42.8523 75.6903 41.8239 75.0767 40.9148C74.4744 39.9943 73.7528 39.2102 72.9119 38.5625C72.0824 37.9148 71.1392 37.4205 70.0824 37.0795C69.0256 36.7386 67.8665 36.5682 66.6051 36.5682C64.5369 36.5682 62.6563 37.1023 60.9631 38.1705C59.2699 39.2386 57.9233 40.8125 56.9233 42.892C55.9233 44.9716 55.4233 47.5227 55.4233 50.5455C55.4233 53.5682 55.929 56.1193 56.9403 58.1989C57.9517 60.2784 59.321 61.8523 61.0483 62.9205C62.7756 63.9886 64.7188 64.5227 66.8778 64.5227C68.8778 64.5227 70.6392 64.0966 72.1619 63.2443C73.696 62.3807 74.8892 61.1648 75.7415 59.5966C76.6051 58.017 77.0369 56.1591 77.0369 54.0227L78.3324 54.2955H67.8324V50.5455H81.1278V54.2955C81.1278 57.1705 80.5142 59.6705 79.2869 61.7955C78.071 63.9205 76.3892 65.5682 74.2415 66.7386C72.1051 67.8977 69.6506 68.4773 66.8778 68.4773C63.7869 68.4773 61.071 67.75 58.7301 66.2955C56.4006 64.8409 54.5824 62.7727 53.2756 60.0909C51.9801 57.4091 51.3324 54.2273 51.3324 50.5455C51.3324 47.7841 51.7017 45.3011 52.4403 43.0966C53.1903 40.8807 54.2472 38.9943 55.6108 37.4375C56.9744 35.8807 58.5881 34.6875 60.4517 33.858C62.3153 33.0284 64.3665 32.6136 66.6051 32.6136C68.446 32.6136 70.1619 32.892 71.7528 33.4489C73.3551 33.9943 74.7812 34.7727 76.0312 35.7841C77.2926 36.7841 78.3438 37.983 79.1847 39.3807C80.0256 40.767 80.6051 42.3068 80.9233 44H76.5597Z" fill="black"/>
<path d="M41.1776 41.8182L40.1845 41.9358L40.289 42.8182H41.1776V41.8182ZM38.6889 37.7955L38.1403 38.6315L38.1403 38.6315L38.6889 37.7955ZM29.2798 37.1136L28.8837 36.1954L28.8804 36.1969L29.2798 37.1136ZM26.5866 39.1761L25.7829 38.5811L25.7779 38.588L26.5866 39.1761ZM26.2969 44.5625L25.4627 45.1139L25.4681 45.1221L25.4737 45.1302L26.2969 44.5625ZM28.0355 46.2159L27.503 47.0624L27.5129 47.0685L28.0355 46.2159ZM30.2514 47.2898L29.9063 48.2284L29.9186 48.2328L30.2514 47.2898ZM32.3821 47.9545L32.6421 46.9889L32.6366 46.9875L32.3821 47.9545ZM35.9276 48.9091L35.6676 49.8747L35.6737 49.8763L35.9276 48.9091ZM38.9616 49.8977L38.6084 50.8333L38.6116 50.8344L38.9616 49.8977ZM42.1832 51.6193L41.6037 52.4343L41.614 52.4415L42.1832 51.6193ZM44.7401 54.3807L45.5991 53.8687L45.5991 53.8687L44.7401 54.3807ZM44.2628 63.6364L43.424 63.0918L43.4212 63.0962L44.2628 63.6364ZM39.9673 67.267L39.5376 66.3641L39.5355 66.3651L39.9673 67.267ZM26.6378 67.4034L26.2322 68.3175L26.2343 68.3184L26.6378 67.4034ZM22.3423 64.0284L21.5295 64.6109L21.5325 64.6151L22.3423 64.0284ZM20.5866 59V58H19.5127L19.5892 59.0712L20.5866 59ZM24.9503 59L25.9466 58.9141L25.8678 58H24.9503V59ZM26.2798 62.2727L25.5345 62.9396L25.5439 62.9498L26.2798 62.2727ZM29.2457 64.1818L28.9134 65.125L28.9242 65.1287L29.2457 64.1818ZM37.4787 64.0114L37.8557 64.9376L37.8627 64.9347L37.4787 64.0114ZM40.5298 61.7955L41.3125 62.4179L41.3161 62.4133L40.5298 61.7955ZM40.6832 55.625L41.43 54.9599L41.43 54.9599L40.6832 55.625ZM38.1264 53.8523L37.7313 54.7709L37.7313 54.7709L38.1264 53.8523ZM34.7003 52.6591L34.4256 53.6206L34.4326 53.6226L34.7003 52.6591ZM30.4048 51.4318L30.1285 52.3929L30.1301 52.3933L30.4048 51.4318ZM23.9276 48.0739L23.2528 48.8119L23.2528 48.8119L23.9276 48.0739ZM23.1264 37.25L22.3182 36.6611L22.3174 36.6622L23.1264 37.25ZM27.4219 33.8409L27.8318 34.753L27.8344 34.7519L27.4219 33.8409ZM39.473 33.8239L39.0543 34.732L39.0592 34.7342L39.473 33.8239ZM43.6321 37.0966L42.8274 37.6902L42.8305 37.6945L43.6321 37.0966ZM45.2685 41.8182V42.8182H46.3012L46.2679 41.7859L45.2685 41.8182ZM42.1706 41.7006C41.9313 39.6799 40.939 38.076 39.2376 36.9594L38.1403 38.6315C39.3479 39.424 40.0147 40.502 40.1845 41.9358L42.1706 41.7006ZM39.2376 36.9594C37.588 35.8768 35.603 35.3636 33.3366 35.3636V37.3636C35.2976 37.3636 36.8808 37.805 38.1403 38.6315L39.2376 36.9594ZM33.3366 35.3636C31.6847 35.3636 30.1926 35.6308 28.8837 36.1954L29.6759 38.0318C30.6852 37.5965 31.8976 37.3636 33.3366 37.3636V35.3636ZM28.8804 36.1969C27.5965 36.7562 26.5497 37.5453 25.7829 38.5812L27.3904 39.7711C27.9191 39.0569 28.6677 38.4711 29.6792 38.0304L28.8804 36.1969ZM25.7779 38.588C25.0134 39.6392 24.6321 40.8407 24.6321 42.1591H26.6321C26.6321 41.2502 26.8872 40.4631 27.3954 39.7643L25.7779 38.588ZM24.6321 42.1591C24.6321 43.255 24.8949 44.2551 25.4627 45.1139L27.1311 44.0111C26.8125 43.529 26.6321 42.9269 26.6321 42.1591H24.6321ZM25.4737 45.1302C26.0083 45.9054 26.6883 46.5499 27.5031 47.0624L28.568 45.3694C27.9736 44.9956 27.4946 44.5378 27.1201 43.9948L25.4737 45.1302ZM27.5129 47.0685C28.2735 47.5346 29.0715 47.9214 29.9064 48.2284L30.5965 46.3512C29.8858 46.0899 29.2066 45.7608 28.5581 45.3633L27.5129 47.0685ZM29.9186 48.2328C30.7116 48.5127 31.4484 48.7429 32.1276 48.9216L32.6366 46.9875C32.0203 46.8253 31.3366 46.6123 30.5842 46.3468L29.9186 48.2328ZM32.1221 48.9202L35.6676 49.8747L36.1875 47.9435L32.6421 46.9889L32.1221 48.9202ZM35.6737 49.8763C36.5417 50.1042 37.5192 50.422 38.6084 50.8333L39.3149 48.9622C38.1768 48.5325 37.1316 48.1913 36.1815 47.9419L35.6737 49.8763ZM38.6116 50.8344C39.6515 51.2231 40.6487 51.7551 41.6037 52.4343L42.7628 50.8044C41.6724 50.029 40.5218 49.4132 39.3117 48.961L38.6116 50.8344ZM41.614 52.4415C42.5255 53.0726 43.2808 53.8854 43.881 54.8926L45.5991 53.8687C44.8584 52.626 43.9091 51.5979 42.7525 50.7971L41.614 52.4415ZM43.881 54.8926C44.4388 55.8285 44.7457 57.022 44.7457 58.5227H46.7457C46.7457 56.7507 46.3822 55.1828 45.5991 53.8687L43.881 54.8926ZM44.7457 58.5227C44.7457 60.2238 44.3032 61.7378 43.4241 63.0918L45.1015 64.1809C46.1997 62.4895 46.7457 60.5944 46.7457 58.5227H44.7457ZM43.4212 63.0962C42.5595 64.4389 41.2821 65.5339 39.5376 66.3641L40.3971 68.17C42.4253 67.2048 44.0116 65.8792 45.1044 64.1765L43.4212 63.0962ZM39.5355 66.3651C37.8285 67.1824 35.7062 67.6136 33.1321 67.6136V69.6136C35.9216 69.6136 38.3562 69.1472 40.3992 68.169L39.5355 66.3651ZM33.1321 67.6136C30.7373 67.6136 28.7161 67.227 27.0413 66.4884L26.2343 68.3184C28.2185 69.1934 30.5269 69.6136 33.1321 69.6136V67.6136ZM27.0434 66.4894C25.3673 65.7456 24.0825 64.726 23.1522 63.4418L21.5325 64.6151C22.6931 66.2172 24.2719 67.4476 26.2322 68.3175L27.0434 66.4894ZM23.1552 63.446C22.237 62.1646 21.7084 60.6686 21.5841 58.9288L19.5892 59.0712C19.7376 61.1496 20.3794 63.0059 21.5295 64.6109L23.1552 63.446ZM20.5866 60H24.9503V58H20.5866V60ZM23.954 59.0859C24.0835 60.5879 24.5975 61.8922 25.5346 62.9395L27.0251 61.6059C26.4167 60.926 26.0444 60.0485 25.9466 58.9141L23.954 59.0859ZM25.5439 62.9498C26.4487 63.9333 27.5805 64.6553 28.9134 65.125L29.5781 63.2387C28.5246 62.8674 27.6791 62.3167 27.0158 61.5957L25.5439 62.9498ZM28.9242 65.1287C30.2412 65.576 31.6462 65.7955 33.1321 65.7955V63.7955C31.8453 63.7955 30.6594 63.6058 29.5673 63.2349L28.9242 65.1287ZM33.1321 65.7955C34.8541 65.7955 36.434 65.5163 37.8557 64.9376L37.1017 63.0852C35.9552 63.5518 34.6374 63.7955 33.1321 63.7955V65.7955ZM37.8627 64.9347C39.2787 64.3457 40.442 63.5126 41.3125 62.4178L39.7471 61.1731C39.1177 61.9647 38.2468 62.6088 37.0947 63.088L37.8627 64.9347ZM41.3161 62.4133C42.2116 61.2736 42.6548 59.9397 42.6548 58.4545H40.6548C40.6548 59.5149 40.348 60.4082 39.7435 61.1776L41.3161 62.4133ZM42.6548 58.4545C42.6548 57.0994 42.2708 55.904 41.43 54.9599L39.9365 56.2901C40.3911 56.8005 40.6548 57.4915 40.6548 58.4545H42.6548ZM41.43 54.9599C40.6689 54.1054 39.6886 53.4356 38.5215 52.9336L37.7313 54.7709C38.6779 55.178 39.4021 55.6901 39.9365 56.2901L41.43 54.9599ZM38.5215 52.9336C37.4192 52.4595 36.2341 52.0473 34.9679 51.6956L34.4326 53.6226C35.621 53.9527 36.72 54.336 37.7313 54.7709L38.5215 52.9336ZM34.975 51.6976L30.6796 50.4703L30.1301 52.3933L34.4256 53.6206L34.975 51.6976ZM30.6811 50.4707C28.0571 49.7163 26.0492 48.6587 24.6023 47.3358L23.2528 48.8119C24.9877 50.3981 27.298 51.5791 30.1285 52.3929L30.6811 50.4707ZM24.6023 47.3358C23.2388 46.0892 22.5412 44.4638 22.5412 42.3636H20.5412C20.5412 44.968 21.4345 47.1494 23.2528 48.8119L24.6023 47.3358ZM22.5412 42.3636C22.5412 40.6009 23.0137 39.1064 23.9354 37.8378L22.3174 36.6622C21.1255 38.3027 20.5412 40.2173 20.5412 42.3636H22.5412ZM23.9346 37.8389C24.8918 36.5254 26.181 35.4948 27.8318 34.753L27.012 32.9288C25.0718 33.8006 23.4974 35.0428 22.3182 36.6611L23.9346 37.8389ZM27.8344 34.7519C29.4965 33.9992 31.3705 33.6136 33.473 33.6136V31.6136C31.121 31.6136 28.9609 32.0463 27.0094 32.93L27.8344 34.7519ZM33.473 33.6136C35.6025 33.6136 37.4558 33.995 39.0543 34.732L39.8917 32.9157C37.9902 32.0391 35.8435 31.6136 33.473 31.6136V33.6136ZM39.0592 34.7342C40.6724 35.4675 41.9172 36.4564 42.8274 37.6902L44.4368 36.5029C43.3016 34.9641 41.7737 33.7711 39.8868 32.9135L39.0592 34.7342ZM42.8305 37.6945C43.7399 38.9137 44.2186 40.2893 44.269 41.8504L46.2679 41.7859C46.2047 39.8244 45.5925 38.0522 44.4337 36.4987L42.8305 37.6945ZM45.2685 40.8182H41.1776V42.8182H45.2685V40.8182ZM76.5597 44L75.6091 44.3106L75.8344 45H76.5597V44ZM75.0767 40.9148L74.2399 41.4623L74.2438 41.4683L74.2479 41.4742L75.0767 40.9148ZM72.9119 38.5625L72.2965 39.3507L72.3017 39.3547L72.9119 38.5625ZM70.0824 37.0795L70.3894 36.1278L70.3894 36.1278L70.0824 37.0795ZM56.9233 42.892L57.8245 43.3254L57.8245 43.3254L56.9233 42.892ZM56.9403 58.1989L56.0411 58.6362L56.0411 58.6362L56.9403 58.1989ZM72.1619 63.2443L72.6503 64.1169L72.6525 64.1157L72.1619 63.2443ZM75.7415 59.5966L74.8641 59.1169L74.8629 59.1191L75.7415 59.5966ZM77.0369 54.0227L77.2429 53.0442L76.0369 52.7903V54.0227H77.0369ZM78.3324 54.2955V55.2955L78.5384 53.3169L78.3324 54.2955ZM67.8324 54.2955H66.8324V55.2955H67.8324V54.2955ZM67.8324 50.5455V49.5455H66.8324V50.5455H67.8324ZM81.1278 50.5455H82.1278V49.5455H81.1278V50.5455ZM79.2869 61.7955L78.421 61.2953L78.419 61.2988L79.2869 61.7955ZM74.2415 66.7386L74.7184 67.6176L74.72 67.6167L74.2415 66.7386ZM58.7301 66.2955L58.2005 67.1437L58.2023 67.1448L58.7301 66.2955ZM53.2756 60.0909L52.3751 60.5259L52.3766 60.529L53.2756 60.0909ZM52.4403 43.0966L51.4931 42.776L51.4921 42.7789L52.4403 43.0966ZM55.6108 37.4375L56.363 38.0964L56.363 38.0964L55.6108 37.4375ZM71.7528 33.4489L71.4225 34.3928L71.4306 34.3955L71.7528 33.4489ZM76.0312 35.7841L75.4022 36.5615L75.41 36.5677L76.0312 35.7841ZM79.1847 39.3807L78.3278 39.8962L78.3297 39.8993L79.1847 39.3807ZM80.9233 44V45H82.1287L81.9061 43.8153L80.9233 44ZM77.5102 43.6894C77.1093 42.4623 76.576 41.3486 75.9056 40.3553L74.2479 41.4742C74.8046 42.2991 75.2601 43.2423 75.6091 44.3106L77.5102 43.6894ZM75.9135 40.3672C75.2522 39.3566 74.455 38.4888 73.5222 37.7703L72.3017 39.3547C73.0507 39.9317 73.6967 40.6321 74.2399 41.4623L75.9135 40.3672ZM73.5274 37.7743C72.6004 37.0505 71.5516 36.5027 70.3894 36.1278L69.7754 38.0313C70.7268 38.3382 71.5644 38.779 72.2965 39.3507L73.5274 37.7743ZM70.3894 36.1278C69.2209 35.7509 67.9568 35.5682 66.6051 35.5682V37.5682C67.7762 37.5682 68.8302 37.7264 69.7754 38.0313L70.3894 36.1278ZM66.6051 35.5682C64.3547 35.5682 62.2879 36.1523 60.4295 37.3247L61.4966 39.0162C63.0246 38.0522 64.7192 37.5682 66.6051 37.5682V35.5682ZM60.4295 37.3247C58.5544 38.5076 57.0908 40.2362 56.0221 42.4587L57.8245 43.3254C58.7558 41.3888 59.9854 39.9696 61.4966 39.0162L60.4295 37.3247ZM56.0221 42.4587C54.9402 44.7086 54.4233 47.4173 54.4233 50.5455H56.4233C56.4233 47.6282 56.9064 45.2346 57.8245 43.3254L56.0221 42.4587ZM54.4233 50.5455C54.4233 53.675 54.9463 56.3852 56.0411 58.6362L57.8396 57.7615C56.9117 55.8534 56.4233 53.4614 56.4233 50.5455H54.4233ZM56.0411 58.6362C57.1235 60.8618 58.6125 62.5899 60.5223 63.771L61.5743 62.07C60.0295 61.1146 58.78 59.695 57.8396 57.7615L56.0411 58.6362ZM60.5223 63.771C62.4177 64.9431 64.5452 65.5227 66.8778 65.5227V63.5227C64.8923 63.5227 63.1334 63.0342 61.5743 62.07L60.5223 63.771ZM66.8778 65.5227C69.0236 65.5227 70.9578 65.0643 72.6503 64.1169L71.6735 62.3717C70.3207 63.1289 68.7321 63.5227 66.8778 63.5227V65.5227ZM72.6525 64.1157C74.3528 63.1585 75.6794 61.805 76.6201 60.0741L74.8629 59.1191C74.099 60.5245 73.0393 61.6028 71.6714 62.3729L72.6525 64.1157ZM76.6189 60.0763C77.5767 58.3245 78.0369 56.2954 78.0369 54.0227H76.0369C76.0369 56.0227 75.6335 57.7096 74.8641 59.1169L76.6189 60.0763ZM76.8309 55.0013L78.1264 55.274L78.5384 53.3169L77.2429 53.0442L76.8309 55.0013ZM78.3324 53.2955H67.8324V55.2955H78.3324V53.2955ZM68.8324 54.2955V50.5455H66.8324V54.2955H68.8324ZM67.8324 51.5455H81.1278V49.5455H67.8324V51.5455ZM80.1278 50.5455V54.2955H82.1278V50.5455H80.1278ZM80.1278 54.2955C80.1278 57.0253 79.5464 59.3467 78.421 61.2953L80.1529 62.2956C81.482 59.9942 82.1278 57.3157 82.1278 54.2955H80.1278ZM78.419 61.2988C77.295 63.2632 75.7479 64.7788 73.763 65.8606L74.72 67.6167C77.0305 66.3575 78.8471 64.5777 80.1549 62.2921L78.419 61.2988ZM73.7646 65.8597C71.7941 66.9287 69.5077 67.4773 66.8778 67.4773V69.4773C69.7934 69.4773 72.4161 68.8667 74.7184 67.6176L73.7646 65.8597ZM66.8778 67.4773C63.9501 67.4773 61.4217 66.7906 59.2579 65.4461L58.2023 67.1448C60.7204 68.7094 63.6237 69.4773 66.8778 69.4773V67.4773ZM59.2597 65.4472C57.103 64.1006 55.4065 62.1811 54.1745 59.6529L52.3766 60.529C53.7583 63.3643 55.6981 65.5812 58.2005 67.1437L59.2597 65.4472ZM54.176 59.6559C52.9597 57.138 52.3324 54.1114 52.3324 50.5455H50.3324C50.3324 54.3431 51.0005 57.6802 52.3751 60.5259L54.176 59.6559ZM52.3324 50.5455C52.3324 47.8724 52.69 45.4993 53.3885 43.4143L51.4921 42.7789C50.7135 45.103 50.3324 47.6958 50.3324 50.5455H52.3324ZM53.3876 43.4172C54.1009 41.3096 55.0966 39.5423 56.363 38.0964L54.8586 36.7786C53.3978 38.4464 52.2798 40.4518 51.4931 42.776L53.3876 43.4172ZM56.363 38.0964C57.6327 36.6469 59.129 35.5413 60.8584 34.7715L60.045 32.9444C58.0472 33.8337 56.3162 35.1145 54.8586 36.7786L56.363 38.0964ZM60.8584 34.7715C62.582 34.0043 64.4928 33.6136 66.6051 33.6136V31.6136C64.2401 31.6136 62.0487 32.0525 60.045 32.9444L60.8584 34.7715ZM66.6051 33.6136C68.3439 33.6136 69.9471 33.8763 71.4225 34.3927L72.0832 32.505C70.3768 31.9078 68.5482 31.6136 66.6051 31.6136V33.6136ZM71.4306 34.3955C72.9274 34.9051 74.2485 35.628 75.4023 36.5615L76.6602 35.0067C75.314 33.9175 73.7829 33.0836 72.0751 32.5022L71.4306 34.3955ZM75.41 36.5677C76.5761 37.4922 77.5479 38.5998 78.3278 39.8962L80.0415 38.8652C79.1396 37.3661 78.0091 36.076 76.6525 35.0005L75.41 36.5677ZM78.3297 39.8993C79.1044 41.1766 79.6431 42.6021 79.9405 44.1847L81.9061 43.8153C81.5671 42.0115 80.9467 40.3574 80.0397 38.8621L78.3297 39.8993ZM80.9233 43H76.5597V45H80.9233V43Z" fill="black"/>
</g>
</g>
<defs>
<filter id="filter0_b_101_2" x="16.5866" y="28.6136" width="68.5412" height="44" filterUnits="userSpaceOnUse" color-interpolation-filters="sRGB">
<feFlood flood-opacity="0" result="BackgroundImageFix"/>
<feGaussianBlur in="BackgroundImage" stdDeviation="2"/>
<feComposite in2="SourceAlpha" operator="in" result="effect1_backgroundBlur_101_2"/>
<feBlend mode="normal" in="SourceGraphic" in2="effect1_backgroundBlur_101_2" result="shape"/>
</filter>
<linearGradient id="paint0_linear_101_2" x1="50" y1="0" x2="78" y2="83" gradientUnits="userSpaceOnUse">
<stop stop-color="white"/>
</linearGradient>
<clipPath id="clip0_101_2">
<rect width="100" height="100" rx="10" fill="white"/>
</clipPath>
</defs>
</svg>
